<?xml version="1.0"?>
<svg xmlns="http://www.w3.org/2000/svg" xmlns:xlink="http://www.w3.org/1999/xlink" xmlns:svgjs="http://svgjs.com/svgjs" version="1.1" width="512" height="512" x="0" y="0" viewBox="0 0 26.989 26.989" style="enable-background:new 0 0 512 512" xml:space="preserve" class=""><rect width="26.989" height="26.989" fill="#e6e6e6" shape="square" transform="matrix(0.61,0,0,0.61,5.262501248816079,5.262116589369645)"/><g transform="matrix(0.7,0,0,0.7,4.049846175584772,4.0477956151008385)">
<g xmlns="http://www.w3.org/2000/svg">
	<path d="M0.616,2.148v22.695c0,1.186,0.959,2.146,2.145,2.146h21.467c1.184,0,2.146-0.961,2.146-2.146V2.148   C26.374,0.967,25.41,0,24.227,0H2.761C1.575,0,0.616,0.967,0.616,2.148z M8.778,20.824c0,1.531-1.242,2.779-2.777,2.779   c-1.533,0-2.777-1.248-2.777-2.779c0-1.533,1.244-2.779,2.777-2.779C7.536,18.045,8.778,19.291,8.778,20.824z M23.695,5.598   c0,1.535-1.242,2.777-2.777,2.777c-1.533,0-2.779-1.242-2.779-2.777c0-1.533,1.246-2.777,2.779-2.777   C22.453,2.82,23.695,4.064,23.695,5.598z M16.27,13.496c0,1.535-1.242,2.779-2.777,2.779c-1.531,0-2.777-1.244-2.777-2.779   c0-1.533,1.246-2.777,2.777-2.777C15.028,10.719,16.27,11.963,16.27,13.496z" fill="#d10511" data-original="#000000" style=""/>
	<g>
	</g>
	<g>
	</g>
	<g>
	</g>
	<g>
	</g>
	<g>
	</g>
	<g>
	</g>
	<g>
	</g>
	<g>
	</g>
	<g>
	</g>
	<g>
	</g>
	<g>
	</g>
	<g>
	</g>
	<g>
	</g>
	<g>
	</g>
	<g>
	</g>
</g>
<g xmlns="http://www.w3.org/2000/svg">
</g>
<g xmlns="http://www.w3.org/2000/svg">
</g>
<g xmlns="http://www.w3.org/2000/svg">
</g>
<g xmlns="http://www.w3.org/2000/svg">
</g>
<g xmlns="http://www.w3.org/2000/svg">
</g>
<g xmlns="http://www.w3.org/2000/svg">
</g>
<g xmlns="http://www.w3.org/2000/svg">
</g>
<g xmlns="http://www.w3.org/2000/svg">
</g>
<g xmlns="http://www.w3.org/2000/svg">
</g>
<g xmlns="http://www.w3.org/2000/svg">
</g>
<g xmlns="http://www.w3.org/2000/svg">
</g>
<g xmlns="http://www.w3.org/2000/svg">
</g>
<g xmlns="http://www.w3.org/2000/svg">
</g>
<g xmlns="http://www.w3.org/2000/svg">
</g>
<g xmlns="http://www.w3.org/2000/svg">
</g>
</g></svg>
