<?xml version="1.0"?>
<svg xmlns="http://www.w3.org/2000/svg" xmlns:xlink="http://www.w3.org/1999/xlink" xmlns:svgjs="http://svgjs.com/svgjs" version="1.1" width="512" height="512" x="0" y="0" viewBox="0 0 384 384" style="enable-background:new 0 0 512 512" xml:space="preserve" class=""><rect width="384" height="384" fill="#e6e6e6" shape="square" transform="matrix(0.5,0,0,0.5,96,96)"/><g transform="matrix(0.7,0,0,0.7,57.60000000000002,57.60000000000002)">
<g xmlns="http://www.w3.org/2000/svg">
	<g>
		<path d="M341.333,0H42.667C19.093,0,0,19.093,0,42.667v298.667C0,364.907,19.093,384,42.667,384h298.667    C364.907,384,384,364.907,384,341.333V42.667C384,19.093,364.907,0,341.333,0z M96,320c-17.707,0-32-14.293-32-32s14.293-32,32-32    s32,14.293,32,32S113.707,320,96,320z M96,128c-17.707,0-32-14.293-32-32s14.293-32,32-32s32,14.293,32,32S113.707,128,96,128z     M192,224c-17.707,0-32-14.293-32-32s14.293-32,32-32s32,14.293,32,32S209.707,224,192,224z M288,320c-17.707,0-32-14.293-32-32    s14.293-32,32-32s32,14.293,32,32S305.707,320,288,320z M288,128c-17.707,0-32-14.293-32-32s14.293-32,32-32s32,14.293,32,32    S305.707,128,288,128z" fill="#d10511" data-original="#000000" style=""/>
	</g>
</g>
<g xmlns="http://www.w3.org/2000/svg">
</g>
<g xmlns="http://www.w3.org/2000/svg">
</g>
<g xmlns="http://www.w3.org/2000/svg">
</g>
<g xmlns="http://www.w3.org/2000/svg">
</g>
<g xmlns="http://www.w3.org/2000/svg">
</g>
<g xmlns="http://www.w3.org/2000/svg">
</g>
<g xmlns="http://www.w3.org/2000/svg">
</g>
<g xmlns="http://www.w3.org/2000/svg">
</g>
<g xmlns="http://www.w3.org/2000/svg">
</g>
<g xmlns="http://www.w3.org/2000/svg">
</g>
<g xmlns="http://www.w3.org/2000/svg">
</g>
<g xmlns="http://www.w3.org/2000/svg">
</g>
<g xmlns="http://www.w3.org/2000/svg">
</g>
<g xmlns="http://www.w3.org/2000/svg">
</g>
<g xmlns="http://www.w3.org/2000/svg">
</g>
</g></svg>
