<?xml version="1.0"?>
<svg xmlns="http://www.w3.org/2000/svg" xmlns:xlink="http://www.w3.org/1999/xlink" xmlns:svgjs="http://svgjs.com/svgjs" version="1.1" width="512" height="512" x="0" y="0" viewBox="0 0 26.989 26.989" style="enable-background:new 0 0 512 512" xml:space="preserve" class=""><circle r="13.4945" cx="13.4945" cy="13.4945" fill="#e6e6e6" shape="circle" transform="matrix(0.21,0,0,0.21,10.659938427088981,10.659159245133383)"/><g transform="matrix(0.7,0,0,0.7,4.0475949580151624,4.050053567734448)">
<g xmlns="http://www.w3.org/2000/svg">
	<path d="M24.842,0.615H2.146C0.959,0.615,0,1.576,0,2.76v21.469c0,1.182,0.959,2.145,2.146,2.145h22.695   c1.186,0,2.148-0.963,2.148-2.145V2.76C26.99,1.576,26.027,0.615,24.842,0.615z M13.494,15.525c-1.531,0-2.777-1.244-2.777-2.775   c0-1.535,1.246-2.781,2.777-2.781c1.533,0,2.777,1.246,2.777,2.781C16.271,14.281,15.027,15.525,13.494,15.525z" fill="#d10511" data-original="#000000" style="" class=""/>
	<g>
	</g>
	<g>
	</g>
	<g>
	</g>
	<g>
	</g>
	<g>
	</g>
	<g>
	</g>
	<g>
	</g>
	<g>
	</g>
	<g>
	</g>
	<g>
	</g>
	<g>
	</g>
	<g>
	</g>
	<g>
	</g>
	<g>
	</g>
	<g>
	</g>
</g>
<g xmlns="http://www.w3.org/2000/svg">
</g>
<g xmlns="http://www.w3.org/2000/svg">
</g>
<g xmlns="http://www.w3.org/2000/svg">
</g>
<g xmlns="http://www.w3.org/2000/svg">
</g>
<g xmlns="http://www.w3.org/2000/svg">
</g>
<g xmlns="http://www.w3.org/2000/svg">
</g>
<g xmlns="http://www.w3.org/2000/svg">
</g>
<g xmlns="http://www.w3.org/2000/svg">
</g>
<g xmlns="http://www.w3.org/2000/svg">
</g>
<g xmlns="http://www.w3.org/2000/svg">
</g>
<g xmlns="http://www.w3.org/2000/svg">
</g>
<g xmlns="http://www.w3.org/2000/svg">
</g>
<g xmlns="http://www.w3.org/2000/svg">
</g>
<g xmlns="http://www.w3.org/2000/svg">
</g>
<g xmlns="http://www.w3.org/2000/svg">
</g>
</g></svg>
